<?xml version="1.0" encoding="UTF-8" standalone="no"?>
<!-- Created with Inkscape (http://www.inkscape.org/) -->

<svg
   xmlns:dc="http://purl.org/dc/elements/1.1/"
   xmlns:cc="http://creativecommons.org/ns#"
   xmlns:rdf="http://www.w3.org/1999/02/22-rdf-syntax-ns#"
   xmlns:svg="http://www.w3.org/2000/svg"
   xmlns="http://www.w3.org/2000/svg"
   xmlns:sodipodi="http://sodipodi.sourceforge.net/DTD/sodipodi-0.dtd"
   xmlns:inkscape="http://www.inkscape.org/namespaces/inkscape"
   width="550"
   height="550"
   id="svg2"
   version="1.1"
   inkscape:version="0.91 r13725"
   sodipodi:docname="hyperboria.svg">
  <defs
     id="defs4" />
  <sodipodi:namedview
     id="base"
     pagecolor="#ffffff"
     bordercolor="#666666"
     borderopacity="1.0"
     inkscape:pageopacity="0.0"
     inkscape:pageshadow="2"
     inkscape:zoom="0.35"
     inkscape:cx="701.68603"
     inkscape:cy="493.58817"
     inkscape:document-units="px"
     inkscape:current-layer="layer1"
     showgrid="false"
     inkscape:window-width="1918"
     inkscape:window-height="1056"
     inkscape:window-x="0"
     inkscape:window-y="0"
     inkscape:window-maximized="0"
     fit-margin-top="0"
     fit-margin-left="0"
     fit-margin-right="0"
     fit-margin-bottom="0" />
  <metadata
     id="metadata7">
    <rdf:RDF>
      <cc:Work
         rdf:about="">
        <dc:format>image/svg+xml</dc:format>
        <dc:type
           rdf:resource="http://purl.org/dc/dcmitype/StillImage" />
        <dc:title></dc:title>
      </cc:Work>
    </rdf:RDF>
  </metadata>
  <g
     inkscape:label="Layer 1"
     inkscape:groupmode="layer"
     id="layer1"
     transform="translate(-34.73646,-475.95033)">
    <g
       id="g3445"
       transform="translate(15.999125,-25.985644)">
      <polygon
         transform="translate(-168.16179,492.4336)"
         style="opacity:0.5;fill:#ffffff;stroke:#f7931e;stroke-width:26;stroke-miterlimit:10"
         id="polygon3030"
         points="372.6,50.5 440.9,90 440.9,169 372.5,208.5 304.1,168.9 304.1,90 "
         stroke-miterlimit="10" />
      <polygon
         transform="translate(-168.16179,492.4336)"
         style="fill:#ffffff;stroke:#f7931e;stroke-width:26;stroke-miterlimit:10"
         id="polygon3032"
         points="551.6,50.5 619.9,90 619.9,169 551.5,208.5 483.1,168.9 483.1,90 "
         stroke-miterlimit="10" />
      <polygon
         transform="translate(-168.16179,492.4336)"
         style="fill:#ffffff;stroke:#f7931e;stroke-width:26;stroke-miterlimit:10"
         id="polygon3034"
         points="462.6,203.5 530.9,243 530.9,322 462.5,361.5 394.1,321.9 394.1,243 "
         stroke-miterlimit="10" />
      <polygon
         transform="translate(-168.16179,492.4336)"
         style="opacity:0.5;fill:#ffffff;stroke:#f7931e;stroke-width:26;stroke-miterlimit:10"
         id="polygon3038"
         points="639.6,204.5 707.9,244 707.9,323 639.5,362.5 571.1,322.9 571.1,244 "
         stroke-miterlimit="10" />
      <polygon
         transform="translate(-168.16179,492.4336)"
         style="fill:#ffffff;stroke:#f7931e;stroke-width:26;stroke-miterlimit:10"
         id="polygon3040"
         points="372.6,360.5 440.9,400 440.9,479 372.5,518.5 304.1,478.9 304.1,400 "
         stroke-miterlimit="10" />
      <polygon
         transform="translate(-168.16179,492.4336)"
         style="opacity:0.5;fill:#ffffff;stroke:#f7931e;stroke-width:26;stroke-miterlimit:10"
         id="polygon3042"
         points="551.6,360.5 619.9,400 619.9,479 551.5,518.5 483.1,478.9 483.1,400 "
         stroke-miterlimit="10" />
      <polygon
         transform="translate(-256.36354,646.92973)"
         style="opacity:0.5;fill:#ffffff;stroke:#f7931e;stroke-width:26;stroke-miterlimit:10"
         id="polygon3030-0"
         points="304.1,168.9 304.1,90 372.6,50.5 440.9,90 440.9,169 372.5,208.5 "
         stroke-miterlimit="10" />
    </g>
  </g>
</svg>
