<?xml version="1.0" encoding="UTF-8" standalone="no"?>
<!-- Created with Inkscape (http://www.inkscape.org/) -->

<svg
   xmlns:dc="http://purl.org/dc/elements/1.1/"
   xmlns:cc="http://creativecommons.org/ns#"
   xmlns:rdf="http://www.w3.org/1999/02/22-rdf-syntax-ns#"
   xmlns:svg="http://www.w3.org/2000/svg"
   xmlns="http://www.w3.org/2000/svg"
   xmlns:sodipodi="http://sodipodi.sourceforge.net/DTD/sodipodi-0.dtd"
   xmlns:inkscape="http://www.inkscape.org/namespaces/inkscape"
   width="2560"
   height="550"
   id="svg2"
   version="1.1"
   inkscape:version="0.48.4 r9939"
   sodipodi:docname="hyperboria.svg">
  <defs
     id="defs4" />
  <sodipodi:namedview
     id="base"
     pagecolor="#ffffff"
     bordercolor="#666666"
     borderopacity="1.0"
     inkscape:pageopacity="0.0"
     inkscape:pageshadow="2"
     inkscape:zoom="0.35"
     inkscape:cx="1080.7082"
     inkscape:cy="520"
     inkscape:document-units="px"
     inkscape:current-layer="text3050"
     showgrid="false"
     inkscape:window-width="1280"
     inkscape:window-height="776"
     inkscape:window-x="0"
     inkscape:window-y="124"
     inkscape:window-maximized="1" />
  <metadata
     id="metadata7">
    <rdf:RDF>
      <cc:Work
         rdf:about="">
        <dc:format>image/svg+xml</dc:format>
        <dc:type
           rdf:resource="http://purl.org/dc/dcmitype/StillImage" />
        <dc:title />
      </cc:Work>
    </rdf:RDF>
  </metadata>
  <g
     inkscape:label="Layer 1"
     inkscape:groupmode="layer"
     id="layer1"
     transform="translate(0,-502.36217)">
    <polygon
       stroke-miterlimit="10"
       points="372.6,50.5 440.9,90 440.9,169 372.5,208.5 304.1,168.9 304.1,90 "
       id="polygon3030"
       style="opacity:0.5;fill:#ffffff;stroke:#f7931e;stroke-width:26;stroke-miterlimit:10"
       transform="translate(-168.16179,492.4336)" />
    <polygon
       stroke-miterlimit="10"
       points="551.6,50.5 619.9,90 619.9,169 551.5,208.5 483.1,168.9 483.1,90 "
       id="polygon3032"
       style="fill:#ffffff;stroke:#f7931e;stroke-width:26;stroke-miterlimit:10"
       transform="translate(-168.16179,492.4336)" />
    <polygon
       stroke-miterlimit="10"
       points="462.6,203.5 530.9,243 530.9,322 462.5,361.5 394.1,321.9 394.1,243 "
       id="polygon3034"
       style="fill:#ffffff;stroke:#f7931e;stroke-width:26;stroke-miterlimit:10"
       transform="translate(-168.16179,492.4336)" />
    <polygon
       stroke-miterlimit="10"
       points="639.6,204.5 707.9,244 707.9,323 639.5,362.5 571.1,322.9 571.1,244 "
       id="polygon3038"
       style="opacity:0.5;fill:#ffffff;stroke:#f7931e;stroke-width:26;stroke-miterlimit:10"
       transform="translate(-168.16179,492.4336)" />
    <polygon
       stroke-miterlimit="10"
       points="372.6,360.5 440.9,400 440.9,479 372.5,518.5 304.1,478.9 304.1,400 "
       id="polygon3040"
       style="fill:#ffffff;stroke:#f7931e;stroke-width:26;stroke-miterlimit:10"
       transform="translate(-168.16179,492.4336)" />
    <polygon
       stroke-miterlimit="10"
       points="551.6,360.5 619.9,400 619.9,479 551.5,518.5 483.1,478.9 483.1,400 "
       id="polygon3042"
       style="opacity:0.5;fill:#ffffff;stroke:#f7931e;stroke-width:26;stroke-miterlimit:10"
       transform="translate(-168.16179,492.4336)" />
    <g
       style="font-size:400px;font-style:normal;font-variant:normal;font-stretch:normal;text-align:start;line-height:125%;letter-spacing:-30.17000008px;word-spacing:0px;writing-mode:lr-tb;text-anchor:start;fill:#261305;fill-opacity:1;stroke:none;font-family:Fira Sans;-inkscape-font-specification:Fira Sans Semi-Light"
       id="text3050">
      <path
         d="m 807.0382,896.43359 34.8,0 0,-275.2 -34.8,0 0,116 -119.6,0 0,-116 -34.4,0 0,275.2 34.4,0 0,-130.4 119.6,0 0,130.4"
         style=""
         id="path2992" />
      <path
         d="m 1042.7619,686.03359 -34.8,0 -56.79995,186 -58,-186 -36,0 71.2,210.4 11.6,0 c -12.39999,33.59997 -24.00005,50.00001 -66.8,58 l 4,26.4 c 56.39994,-7.19999 80.00001,-38.40004 94.8,-83.2 l 70.79995,-211.6"
         style=""
         id="path2994" />
      <path
         d="m 1150.3232,681.23359 c -24.8,0 -47.2,12.40003 -62.8,34 l -2.4,-29.2 -28.8,0 0,294.8 33.6,-4 0,-100.8 c 13.2,16.39999 32.4,25.2 56,25.2 53.9999,0 82,-46.00006 82,-110.4 0,-66.79993 -22.4001,-109.6 -77.6,-109.6 m -12,192.4 c -20.4,0 -37.2,-10.00001 -48.4,-27.2 l 0,-104.8 c 11.6,-17.19998 29.2,-33.6 52.4,-33.6 32.8,0 49.6,26.80006 49.6,82.8 0,56.39995 -18.8,82.8 -53.6,82.8"
         style=""
         id="path2996" />
      <path
         d="m 1419.2719,784.43359 c 0,-63.59993 -29.2,-103.2 -85.6,-103.2 -53.5999,0 -86.4,46.00007 -86.4,112 0,66.79994 34.0001,108 92,108 28.8,0 52.0001,-10.00001 72.4,-26.4 l -14.8,-20 c -18.3999,12.79999 -34,18.8 -55.2,18.8 -31.5999,0 -55.6,-20.00005 -58.8,-70.8 l 135.6,0 c 0.4,-4.39999 0.8,-11.2 0.8,-18.4 m -33.2,-6.4 -103.2,0 c 2.8,-49.19995 22.4001,-70 51.6,-70 34.8,0 51.6,24.40005 51.6,66.8 l 0,3.2"
         style=""
         id="path2998" />
      <path
         d="m 1540.252,681.23359 c -26,0 -45.6001,16.40004 -56.8,48.8 l -3.2,-44 -28.8,0 0,210.4 33.6,0 0,-122 c 9.1999,-41.19996 24.4,-60.4 51.6,-60.4 7.5999,0 12,0.80001 18.4,2.4 l 6,-32.8 c -6,-1.59999 -13.6001,-2.4 -20.8,-2.4"
         style=""
         id="path3000" />
      <path
         d="m 1668.407,681.23359 c -26,0 -46,12.00002 -60.4,32 l 0,-116 -33.6,4 0,295.2 29.2,0 3.6,-24 c 14,17.59999 33.2,28.8 56.8,28.8 51.1999,0 82,-44.00006 82,-110.4 0,-69.99993 -30.0001,-109.6 -77.6,-109.6 m -12,193.2 c -20,0 -37.2,-12.40001 -48.4,-29.6 l 0,-103.2 c 11.2,-17.19998 27.2,-33.6 51.2,-33.6 30.7999,0 50.8,22.40006 50.8,82.8 0,58.39995 -21.6001,83.6 -53.6,83.6"
         style=""
         id="path3002" />
      <path
         d="m 1858.1557,681.23359 c -58.8,0 -92.8,44.40007 -92.8,110.4 0,66.79994 33.6,109.6 92.4,109.6 58.7999,0 92.8,-44.40006 92.8,-110.4 0,-67.19993 -33.2001,-109.6 -92.4,-109.6 m 0,27.2 c 36.3999,0 56.4,26.80006 56.4,82.4 0,56.39995 -20.4001,83.2 -56.8,83.2 -36.4,0 -56.4,-26.80005 -56.4,-82.4 0,-56.39994 20.8,-83.2 56.8,-83.2"
         style=""
         id="path3004" />
      <path
         d="m 2071.617,681.23359 c -26,0 -45.6,16.40004 -56.8,48.8 l -3.2,-44 -28.8,0 0,210.4 33.6,0 0,-122 c 9.2,-41.19996 24.4,-60.4 51.6,-60.4 7.6,0 12,0.80001 18.4,2.4 l 6,-32.8 c -6,-1.59999 -13.6,-2.4 -20.8,-2.4"
         style=""
         id="path3006" />
      <path
         d="m 2122.172,586.83359 c -14,0 -23.6,10.00002 -23.6,23.2 0,13.19999 9.6,23.2 23.6,23.2 14.3999,0 24,-10.00001 24,-23.2 0,-13.19998 -9.6001,-23.2 -24,-23.2 m 17.2,99.2 -33.6,0 0,210.4 33.6,0 0,-210.4"
         style=""
         id="path3008" />
      <path
         d="m 2326.5207,848.03359 0,-97.6 c 0,-43.59995 -22.8001,-69.2 -72.8,-69.2 -23.2,0 -46.0001,4.80001 -71.2,14.4 l 8.4,24.8 c 21.5999,-7.59999 40.8,-11.6 56.8,-11.6 30.3999,0 45.2,12.00003 45.2,43.2 l 0,16.4 -34.4,0 c -57.6,0 -91.2,24.40005 -91.2,69.2 0,37.59997 24.8,63.6 66.4,63.6 26.3999,0 48.8,-10.00002 63.2,-32.4 5.6,20.79998 18.8,29.60001 39.2,32.4 l 8,-23.6 c -11.2,-3.99999 -17.6,-10.00002 -17.6,-29.6 m -85.2,27.6 c -25.2,0 -38.4,-14.00002 -38.4,-39.6 0,-29.99997 20.8,-44.8 60,-44.8 l 30,0 0,50.4 c -12.4,22.39998 -28.8001,34 -51.6,34"
         style=""
         id="path3010" />
    </g>
    <polygon
       stroke-miterlimit="10"
       points="304.1,168.9 304.1,90 372.6,50.5 440.9,90 440.9,169 372.5,208.5 "
       id="polygon3030-0"
       style="opacity:0.5;fill:#ffffff;stroke:#f7931e;stroke-width:26;stroke-miterlimit:10"
       transform="translate(-256.36354,646.92973)" />
  </g>
</svg>
